<?xml version="1.0" encoding="utf-8"?>
<!-- Generator: Adobe Illustrator 16.0.0, SVG Export Plug-In . SVG Version: 6.00 Build 0)  -->
<!DOCTYPE svg PUBLIC "-//W3C//DTD SVG 1.1//EN" "http://www.w3.org/Graphics/SVG/1.1/DTD/svg11.dtd">
<svg version="1.1" id="Layer_1" xmlns="http://www.w3.org/2000/svg" xmlns:xlink="http://www.w3.org/1999/xlink" x="0px" y="0px"
	 width="90px" height="90px" viewBox="0 0 90 90" enable-background="new 0 0 90 90" xml:space="preserve">
<g id="Layer_2">
	<path fill="#FFFFFF" d="M45.143,67.883c-2.051-0.104-4.23-0.294-6.124-1.195c-4.756-2.266-8.569-8.895-10.164-13.834
		c-0.566-1.752-0.961-3.583-1.236-5.41c-0.278-1.857-0.423-3.761-0.478-5.639c-0.15-5.17-0.209-10.602,3.025-14.806
		c1.408-1.829,3.952-4.082,6.064-4.923c1.12-0.448,2.29-0.606,3.473-0.773c2.348-0.331,4.72-0.51,7.089-0.417
		c2.259,0.087,4.706,0.284,6.806,1.233c3.479,1.571,7.311,5.629,8.521,9.404c0.763,2.378,0.75,5.087,0.799,7.558
		c0.092,4.64-0.354,9.357-1.781,13.773c-1.676,5.192-5.271,12.018-10.484,14.096C48.877,67.66,47.025,67.854,45.143,67.883z"/>
</g>
<g id="svg2985" xmlns:rdf="http://www.w3.org/1999/02/22-rdf-syntax-ns#" xmlns:cc="http://creativecommons.org/ns#" xmlns:dc="http://purl.org/dc/elements/1.1/" xmlns:svg="http://www.w3.org/2000/svg">
	<g id="g2993" transform="matrix(1.25,0,0,-1.25,0,127.375)">
		<path id="path2999" fill="#694D4D" d="M36.114,48.225c-1.641,0.083-3.384,0.236-4.9,0.956c-3.805,1.812-6.295,6.555-7.571,10.506
			c-0.453,1.403-0.769,2.868-0.989,4.328c-0.223,1.487-0.338,3.009-0.382,4.512c-0.121,4.136-0.168,8.481,2.42,11.845
			c1.126,1.463,2.602,2.705,4.291,3.378c0.896,0.358,1.831,0.485,2.778,0.619c1.878,0.264,3.776,0.407,5.672,0.333
			c1.805-0.07,3.763-0.227,5.443-0.986c2.783-1.257,5.289-3.944,6.258-6.964c0.61-1.902,0.601-4.069,0.639-6.046
			c0.073-3.712-0.282-7.486-1.424-11.018c-1.341-4.154-3.656-9.054-7.827-10.716C39.102,48.403,37.622,48.247,36.114,48.225z
			 M37.077,47.186c1.554,0.18,3.024,0.425,4.457,1.116c2.002,0.966,3.568,2.796,4.743,4.698c2.014,3.263,3.107,6.953,3.827,10.726
			c0.395,0.287,0.7,0.58,0.73,1.118c0.155,2.788,0.301,5.576,0.416,8.365c0.027,0.677-0.358,1.059-0.894,1.32
			c-0.089,0.941-0.152,1.92-0.463,2.816c-1.188,3.423-3.911,6.499-7.28,7.632c-2.143,0.72-4.371,0.752-6.597,0.794
			c-2.462-0.089-5.111-0.048-7.437-1.023c-3.118-1.308-5.477-4.07-6.508-7.394c-0.284-0.92-0.337-1.908-0.415-2.864
			c-0.466-0.271-0.769-0.686-0.743-1.28c0.12-2.789,0.265-5.577,0.415-8.364c0.024-0.455,0.242-0.748,0.568-1.017
			c0.713-3.9,1.852-7.626,4.037-10.934c1.282-1.942,2.927-3.716,5.007-4.708C32.858,47.269,35.001,47.179,37.077,47.186z"/>
		<g id="g2995">
		</g>
	</g>
</g>
</svg>
