<?xml version="1.0" encoding="utf-8"?>
<!-- Generator: Adobe Illustrator 16.0.0, SVG Export Plug-In . SVG Version: 6.00 Build 0)  -->
<!DOCTYPE svg PUBLIC "-//W3C//DTD SVG 1.1//EN" "http://www.w3.org/Graphics/SVG/1.1/DTD/svg11.dtd">
<svg version="1.1" xmlns="http://www.w3.org/2000/svg" xmlns:xlink="http://www.w3.org/1999/xlink" x="0px" y="0px" width="90px"
	 height="90px" viewBox="0 0 90 90" enable-background="new 0 0 90 90" xml:space="preserve">
<g id="Layer_2">
	<path fill="#FFFFFF" d="M45.161,78c-2.93-0.148-6.043-0.421-8.749-1.709c-6.794-3.236-12.241-12.705-14.52-19.762
		c-0.809-2.504-1.373-5.119-1.765-7.729c-0.398-2.654-0.604-5.372-0.683-8.055c-0.215-7.386-0.299-15.146,4.322-21.151
		c2.012-2.613,5.646-5.831,8.663-7.033c1.6-0.639,3.271-0.866,4.961-1.104c3.354-0.472,6.744-0.728,10.128-0.595
		c3.225,0.125,6.722,0.406,9.721,1.761c4.969,2.245,10.445,8.042,12.175,13.435c1.089,3.397,1.071,7.267,1.14,10.797
		c0.131,6.629-0.504,13.368-2.543,19.676c-2.396,7.418-7.53,17.168-14.979,20.137C50.495,77.682,47.852,77.959,45.161,78z"/>
</g>
<g id="svg2985" xmlns:rdf="http://www.w3.org/1999/02/22-rdf-syntax-ns#" xmlns:cc="http://creativecommons.org/ns#" xmlns:dc="http://purl.org/dc/elements/1.1/" xmlns:svg="http://www.w3.org/2000/svg">
	<g id="g2993" transform="matrix(1.25,0,0,-1.25,0,127.375)">
		<path id="path2999" fill="#694D4D" d="M36.129,40.402c-2.344,0.119-4.835,0.337-7,1.367c-5.436,2.589-8.993,9.364-10.816,15.009
			c-0.647,2.004-1.098,4.096-1.412,6.183c-0.319,2.123-0.484,4.298-0.546,6.445c-0.172,5.909-0.239,12.116,3.457,16.921
			c1.609,2.09,3.717,3.864,6.13,4.826c1.28,0.511,2.616,0.693,3.969,0.884c2.683,0.378,5.395,0.582,8.103,0.476
			c2.579-0.1,5.377-0.325,7.776-1.409c3.975-1.796,7.556-5.634,8.94-9.948c0.871-2.718,0.857-5.813,0.912-8.638
			c0.105-5.303-0.403-10.695-2.034-15.741c-1.917-5.934-5.224-12.934-11.183-15.309C40.396,40.656,38.282,40.434,36.129,40.402z
			 M37.503,38.919c2.22,0.255,4.321,0.606,6.368,1.592c2.86,1.38,5.097,3.995,6.775,6.712c2.878,4.662,4.439,9.934,5.467,15.323
			c0.564,0.411,1,0.829,1.043,1.598c0.221,3.982,0.429,7.965,0.593,11.949c0.039,0.967-0.511,1.513-1.277,1.886
			c-0.127,1.344-0.216,2.743-0.661,4.023c-1.698,4.889-5.588,9.284-10.402,10.902c-3.061,1.029-6.243,1.074-9.423,1.134
			c-3.517-0.128-7.301-0.069-10.624-1.461c-4.455-1.868-7.825-5.814-9.297-10.563c-0.406-1.314-0.482-2.726-0.593-4.091
			c-0.666-0.388-1.098-0.98-1.062-1.829c0.171-3.984,0.379-7.967,0.593-11.949c0.035-0.648,0.346-1.068,0.811-1.452
			c1.019-5.573,2.645-10.895,5.768-15.621c1.832-2.775,4.182-5.308,7.153-6.726C31.477,39.036,34.539,38.908,37.503,38.919z"/>
		<g id="g2995">
		</g>
	</g>
</g>
</svg>
